<svg width="22" height="22" viewBox="0 0 22 22" fill="none" xmlns="http://www.w3.org/2000/svg">
<path d="M11 0.875C8.99747 0.875 7.0399 1.46882 5.37486 2.58137C3.70981 3.69392 2.41206 5.27523 1.64572 7.12533C0.879387 8.97543 0.678878 11.0112 1.06955 12.9753C1.46023 14.9393 2.42454 16.7435 3.84055 18.1595C5.25656 19.5755 7.06066 20.5398 9.02471 20.9305C10.9888 21.3211 13.0246 21.1206 14.8747 20.3543C16.7248 19.5879 18.3061 18.2902 19.4186 16.6251C20.5312 14.9601 21.125 13.0025 21.125 11C21.122 8.3156 20.0543 5.74199 18.1562 3.84383C16.258 1.94567 13.6844 0.877978 11 0.875ZM18.875 11C18.8766 12.7 18.3255 14.3544 17.3047 15.7137L6.28625 4.69531C7.45659 3.82082 8.84713 3.28913 10.3024 3.1597C11.7576 3.03027 13.2201 3.30821 14.5264 3.96243C15.8327 4.61665 16.9313 5.62136 17.6993 6.86421C18.4672 8.10705 18.8743 9.53903 18.875 11ZM3.125 11C3.12338 9.30003 3.67452 7.64562 4.69532 6.28625L15.7138 17.3047C14.5434 18.1792 13.1529 18.7109 11.6977 18.8403C10.2424 18.9697 8.77989 18.6918 7.47358 18.0376C6.16728 17.3834 5.06872 16.3786 4.30075 15.1358C3.53279 13.8929 3.1257 12.461 3.125 11Z" fill="#B71A2A"/>
</svg>
