<svg width="24" height="24" viewBox="0 0 24 24" fill="none" xmlns="http://www.w3.org/2000/svg">
<path d="M21.7303 17.5622C22.2593 16.487 22.5229 15.3007 22.4991 14.1027C22.4753 12.9046 22.1648 11.7297 21.5936 10.6763C21.0224 9.62298 20.2071 8.72181 19.216 8.04831C18.2249 7.37481 17.0869 6.94859 15.8972 6.80533C15.5026 5.88557 14.928 5.05409 14.2071 4.35986C13.4862 3.66563 12.6337 3.1227 11.6997 2.76306C10.7658 2.40342 9.76926 2.23434 8.76894 2.26579C7.76862 2.29724 6.78471 2.52858 5.87518 2.94617C4.96565 3.36377 4.1489 3.95918 3.47305 4.69732C2.7972 5.43546 2.27592 6.30141 1.93992 7.24413C1.60392 8.18686 1.46 9.1873 1.51663 10.1865C1.57327 11.1857 1.82931 12.1635 2.26969 13.0622L1.55156 15.5766C1.48748 15.8015 1.48468 16.0395 1.54343 16.2659C1.60219 16.4923 1.72038 16.6989 1.88577 16.8643C2.05115 17.0296 2.25773 17.1478 2.48412 17.2066C2.71052 17.2653 2.9485 17.2625 3.17344 17.1985L5.68781 16.4803C6.44654 16.8528 7.26268 17.0947 8.10188 17.1956C8.5019 18.1329 9.08872 18.9787 9.82652 19.6816C10.5643 20.3845 11.4376 20.9297 12.3931 21.2838C13.3486 21.638 14.3662 21.7938 15.3839 21.7416C16.4016 21.6894 17.3979 21.4304 18.3122 20.9803L20.8266 21.6985C21.0515 21.7625 21.2895 21.7653 21.5159 21.7066C21.7423 21.6478 21.9489 21.5296 22.1142 21.3643C22.2796 21.1989 22.3978 20.9923 22.4566 20.7659C22.5153 20.5395 22.5125 20.3015 22.4484 20.0766L21.7303 17.5622ZM5.76844 14.9278C5.69873 14.9278 5.62935 14.9373 5.56219 14.956L3.08625 15.6638L3.79406 13.1878C3.84711 12.9992 3.82423 12.7973 3.73031 12.6253C3.0407 11.3593 2.83041 9.8871 3.13796 8.4786C3.44552 7.07009 4.25032 5.81958 5.40491 4.9562C6.55949 4.09283 7.98653 3.67442 9.42452 3.77764C10.8625 3.88087 12.2152 4.49881 13.2346 5.51824C14.254 6.53768 14.872 7.89032 14.9752 9.32831C15.0784 10.7663 14.66 12.1933 13.7966 13.3479C12.9333 14.5025 11.6827 15.3073 10.2742 15.6149C8.86573 15.9224 7.39357 15.7121 6.1275 15.0225C6.01774 14.9611 5.8942 14.9286 5.76844 14.9278ZM20.2059 17.6878L20.9138 20.1638L18.4378 19.456C18.2492 19.4029 18.0473 19.4258 17.8753 19.5197C16.4928 20.2719 14.8702 20.4512 13.3568 20.0192C11.8433 19.5872 10.56 18.5784 9.78281 17.2097C10.8098 17.1028 11.8036 16.7847 12.7019 16.2755C13.6001 15.7664 14.3835 15.077 15.0027 14.2508C15.622 13.4246 16.0639 12.4793 16.3005 11.4742C16.5372 10.4692 16.5636 9.42607 16.3781 8.41033C17.2768 8.62213 18.1145 9.03849 18.826 9.62698C19.5375 10.2155 20.1035 10.9602 20.4801 11.8033C20.8567 12.6463 21.0336 13.5649 20.9971 14.4875C20.9606 15.4101 20.7117 16.3119 20.2697 17.1225C20.175 17.2953 20.1521 17.4983 20.2059 17.6878Z" fill="black"/>
</svg>
