<svg width="12" height="13" viewBox="0 0 12 13" fill="none" xmlns="http://www.w3.org/2000/svg">
<path d="M8.53125 2V2.46875H9H11.5C11.5083 2.46875 11.5162 2.47204 11.5221 2.4779C11.528 2.48376 11.5312 2.49171 11.5312 2.5C11.5312 2.50829 11.528 2.51624 11.5221 2.5221C11.5162 2.52796 11.5083 2.53125 11.5 2.53125H11H10.5312V3V12C10.5312 12.088 10.5094 12.1737 10.4687 12.25V12V3V2.53125H10H2H1.53125V3V12V12.25C1.49058 12.1737 1.46875 12.088 1.46875 12V3V2.53125H1H0.5C0.491712 2.53125 0.483764 2.52796 0.477903 2.5221C0.472042 2.51624 0.46875 2.50829 0.46875 2.5C0.46875 2.49171 0.472042 2.48376 0.477903 2.4779C0.483764 2.47204 0.491712 2.46875 0.5 2.46875H3H3.46875V2V1.5C3.46875 1.2265 3.5774 0.964193 3.7708 0.770796C3.96419 0.577399 4.2265 0.46875 4.5 0.46875H7.5C7.7735 0.46875 8.03581 0.577399 8.2292 0.770796C8.4226 0.964193 8.53125 1.2265 8.53125 1.5V2ZM10 12.4688H10.25C10.1737 12.5094 10.088 12.5312 10 12.5312H2C1.912 12.5312 1.82625 12.5094 1.75 12.4688H2H10ZM8 2.46875H8.46875V2V1.5C8.46875 1.24307 8.36669 0.996667 8.18501 0.81499C8.00333 0.633314 7.75693 0.53125 7.5 0.53125H4.5C4.24307 0.53125 3.99667 0.633315 3.81499 0.81499C3.63331 0.996666 3.53125 1.24307 3.53125 1.5V2V2.46875H4H8ZM4.53125 5.5V9.5C4.53125 9.50829 4.52796 9.51624 4.5221 9.5221C4.51624 9.52796 4.50829 9.53125 4.5 9.53125C4.49171 9.53125 4.48376 9.52796 4.4779 9.5221C4.47204 9.51624 4.46875 9.50829 4.46875 9.5V5.5C4.46875 5.49171 4.47204 5.48376 4.4779 5.4779C4.48376 5.47204 4.49171 5.46875 4.5 5.46875C4.50829 5.46875 4.51624 5.47204 4.5221 5.4779C4.52796 5.48376 4.53125 5.49171 4.53125 5.5ZM7.53125 5.5V9.5C7.53125 9.50829 7.52796 9.51624 7.5221 9.5221C7.51624 9.52796 7.50829 9.53125 7.5 9.53125C7.49171 9.53125 7.48376 9.52796 7.4779 9.5221C7.47204 9.51624 7.46875 9.50829 7.46875 9.5V5.5C7.46875 5.49171 7.47204 5.48376 7.4779 5.4779C7.48376 5.47204 7.49171 5.46875 7.5 5.46875C7.50829 5.46875 7.51624 5.47204 7.5221 5.4779C7.52796 5.48376 7.53125 5.49171 7.53125 5.5Z" stroke="url(#paint0_linear_1095_634)" stroke-width="0.9375"/>
<defs>
<linearGradient id="paint0_linear_1095_634" x1="0" y1="6.50022" x2="12" y2="6.50022" gradientUnits="userSpaceOnUse">
<stop stop-color="#EF3E2C"/>
<stop offset="1" stop-color="#E71F63"/>
</linearGradient>
</defs>
</svg>
