<svg width="24" height="24" viewBox="0 0 24 24" fill="none" xmlns="http://www.w3.org/2000/svg">
<path d="M19.1138 6.04607L19.2322 5.9375H19.0716H4.92844H4.76777L4.8862 6.04607L11.9578 12.5289L12 12.5676L12.0422 12.5289L19.1138 6.04607ZM20.25 18.0625H20.3125V18V6.95531V6.81323L20.2078 6.90924L12.465 14.0071L12.4649 14.0071C12.3381 14.1235 12.1722 14.1881 12 14.1881C11.8278 14.1881 11.6619 14.1235 11.5351 14.0071L11.535 14.0071L3.79223 6.90924L3.6875 6.81323V6.95531V18V18.0625H3.75H20.25ZM3 4.5625H21C21.1823 4.5625 21.3572 4.63493 21.4861 4.76386C21.6151 4.8928 21.6875 5.06766 21.6875 5.25V18C21.6875 18.3812 21.536 18.7469 21.2665 19.0165C20.9969 19.286 20.6312 19.4375 20.25 19.4375H3.75C3.36875 19.4375 3.00312 19.286 2.73353 19.0165C2.46395 18.7469 2.3125 18.3812 2.3125 18V5.25C2.3125 5.06766 2.38493 4.8928 2.51386 4.76386C2.6428 4.63493 2.81766 4.5625 3 4.5625Z" fill="#858589" stroke="#858589" stroke-width="0.125"/>
</svg>
