<svg width="24" height="18" viewBox="0 0 24 18" fill="none" xmlns="http://www.w3.org/2000/svg">
<path d="M11.9998 15.0624C13.3129 15.0697 14.6158 14.8321 15.8418 14.3617L15.9271 14.329L15.8656 14.2613L14.4847 12.7426L14.4492 12.7036L14.4048 12.7319C13.5224 13.2952 12.4693 13.5284 11.4317 13.3902C10.394 13.2521 9.43857 12.7516 8.73426 11.9771C8.02995 11.2027 7.62211 10.2042 7.58282 9.15807C7.54353 8.11199 7.87533 7.08569 8.51957 6.26059L8.55203 6.21902L8.5165 6.18003L6.829 4.32847L6.79511 4.29129L6.75155 4.31644C4.14097 5.82396 2.73065 8.14202 2.2886 8.97052L2.27274 9.00025L2.28886 9.02984C2.86945 10.0956 3.60163 11.0716 4.4625 11.9271L4.46256 11.9271C6.56085 14.0066 9.09745 15.0624 11.9998 15.0624ZM11.9998 15.0624C11.9998 15.0624 11.9997 15.0624 11.9996 15.0624L12 14.9999V15.0624C11.9999 15.0624 11.9999 15.0624 11.9998 15.0624ZM12.5742 5.99199L12.5744 5.99203C13.2234 6.11848 13.8142 6.451 14.2591 6.94015C14.7039 7.4293 14.979 8.04895 15.0434 8.70697L15.0435 8.70728C15.0594 8.87838 15.1388 9.03733 15.266 9.15281C15.3933 9.26829 15.5591 9.33193 15.731 9.33119L15.7349 9.33117L15.7349 9.3313C15.7555 9.33251 15.7762 9.33253 15.7968 9.33136C15.9779 9.31413 16.1449 9.2258 16.261 9.0857C16.3773 8.94533 16.4332 8.76448 16.4162 8.58295L16.4784 8.57713M12.5742 5.99199L12.832 4.64102C13.7746 4.8238 14.6329 5.30636 15.2788 6.01676C15.9247 6.72719 16.3237 7.62742 16.4162 8.58315L16.4784 8.57713M12.5742 5.99199C12.3951 5.9578 12.2368 5.85384 12.1343 5.70299M12.5742 5.99199L12.1343 5.70299M16.4784 8.57713C16.3846 7.60798 15.98 6.69512 15.325 5.97471C14.67 5.2543 13.7996 4.76494 12.8437 4.57963L15.8016 9.39369C15.9996 9.37516 16.1822 9.27872 16.3091 9.12559C16.436 8.97246 16.4969 8.77517 16.4784 8.57713ZM12.1343 5.70299C12.0318 5.55214 11.9934 5.36674 12.0276 5.18759M12.1343 5.70299L12.0276 5.18759M12.0276 5.18759C12.0618 5.00845 12.1658 4.85022 12.3166 4.74771M12.0276 5.18759L12.3166 4.74771M12.3166 4.74771C12.4674 4.64524 12.6528 4.60686 12.8318 4.64099L12.3166 4.74771ZM5.00823 0.287045L5.00874 0.287606L20.0078 16.7876L20.0083 16.7882C20.0703 16.8547 20.1185 16.933 20.15 17.0183C20.1815 17.1036 20.1958 17.1944 20.192 17.2853C20.1882 17.3762 20.1664 17.4654 20.1279 17.5478C20.0893 17.6303 20.0348 17.7042 19.9675 17.7654C19.9002 17.8266 19.8213 17.8738 19.7356 17.9043C19.6499 17.9348 19.559 17.948 19.4682 17.9431C19.3773 17.9382 19.2883 17.9153 19.2064 17.8758C19.1245 17.8363 19.0512 17.7809 18.9908 17.7128L18.9903 17.7123L16.9278 15.4426L16.8975 15.4093L16.8563 15.4275C15.327 16.1028 13.6721 16.447 12.0003 16.4374H12C8.74689 16.4374 5.79176 15.2011 3.45106 12.8614C1.69323 11.1035 0.902947 9.3505 0.871822 9.28025L0.871789 9.28017C0.832698 9.19225 0.8125 9.0971 0.8125 9.00088C0.8125 8.90466 0.832698 8.80951 0.871789 8.72158L0.871837 8.72147C0.934717 8.57931 2.39259 5.37205 5.78143 3.29227L5.84574 3.25281L5.79499 3.19697L3.99124 1.21228L3.99125 1.21228L3.99074 1.21173C3.92875 1.14514 3.88059 1.06691 3.84906 0.981571C3.81753 0.896233 3.80324 0.805485 3.80704 0.714587C3.81084 0.623689 3.83264 0.534449 3.87118 0.452038C3.90972 0.369628 3.96424 0.295686 4.03157 0.2345C4.09889 0.173313 4.1777 0.126098 4.26341 0.0955907C4.34912 0.0650837 4.44003 0.0518916 4.53088 0.0567789C4.62172 0.0616663 4.7107 0.0845359 4.79264 0.124062C4.87458 0.163589 4.94786 0.218986 5.00824 0.287042L5.00823 0.287045ZM0.814679 8.69619C0.772035 8.79211 0.75 8.89591 0.75 9.00088C0.75 9.10585 0.772035 9.20965 0.814679 9.30556V8.69619ZM9.53843 7.31353L9.48412 7.25378L9.43989 7.32133C9.06816 7.88903 8.8955 8.56411 8.94903 9.24057C9.00256 9.91704 9.27924 10.5566 9.73563 11.0587C10.192 11.5609 10.8023 11.8973 11.4705 12.015C12.1388 12.1328 12.8273 12.0252 13.4278 11.7093L13.4993 11.6717L13.445 11.612L9.53843 7.31353ZM14.2128 6.9822C13.7771 6.50301 13.1982 6.17725 12.5625 6.05338L14.9812 8.71307C14.9181 8.06844 14.6486 7.46139 14.2128 6.9822ZM23.1434 9.24306H23.142L23.1254 9.28007C23.0877 9.36444 22.1424 11.4583 20.0133 13.3653L20.0126 13.3659C19.9456 13.4278 19.867 13.4758 19.7813 13.507C19.6956 13.5382 19.6045 13.5521 19.5134 13.5477C19.4223 13.5434 19.333 13.521 19.2506 13.4819C19.1683 13.4427 19.0945 13.3875 19.0337 13.3196C18.9729 13.2516 18.9262 13.1722 18.8963 13.086C18.8665 12.9999 18.8541 12.9086 18.8598 12.8176C18.8656 12.7266 18.8894 12.6376 18.9299 12.5559C18.9704 12.4741 19.0267 12.4013 19.0956 12.3415L19.0964 12.3408C20.1508 11.3935 21.0365 10.274 21.7158 9.02989L21.7321 8.99996L21.7158 8.97001C21.1339 7.90324 20.4001 6.92666 19.5374 6.07088L19.5374 6.07084C17.4391 3.99327 14.9025 2.93746 12.0001 2.93744C12 2.93744 12 2.93744 12 2.93744V2.99994C11.392 2.9992 10.7849 3.04843 10.185 3.14713C10.0874 3.16438 9.98741 3.16213 9.89073 3.14051C9.79404 3.11889 9.70259 3.07833 9.62167 3.02117C9.54074 2.96401 9.47195 2.89138 9.41925 2.80747C9.36656 2.72357 9.33101 2.63006 9.31466 2.53234C9.29832 2.43463 9.30149 2.33464 9.32401 2.23815C9.34652 2.14167 9.38793 2.0506 9.44584 1.97021C9.50375 1.88982 9.57702 1.8217 9.6614 1.76979C9.74579 1.71787 9.83963 1.6832 9.93749 1.66775C10.6192 1.55519 11.309 1.49906 12 1.49994C15.27 1.49994 18.2409 2.74307 20.5931 5.09525L23.1434 9.24306Z" fill="#858589" stroke="#858589" stroke-width="0.125"/>
</svg>
