<svg width="20" height="20" viewBox="0 0 20 20" fill="none" xmlns="http://www.w3.org/2000/svg">
<path d="M10 16.9375H10.0001C11.8394 16.9354 13.6027 16.2038 14.9033 14.9033C16.2038 13.6027 16.9354 11.8394 16.9375 10.0001V10C16.9375 8.62789 16.5306 7.2866 15.7683 6.14573C15.006 5.00487 13.9225 4.11567 12.6549 3.59059C11.3872 3.0655 9.99231 2.92812 8.64656 3.1958C7.30082 3.46349 6.06468 4.12422 5.09445 5.09445C4.12422 6.06467 3.46349 7.30082 3.19581 8.64656C2.92812 9.9923 3.06551 11.3872 3.59059 12.6549C4.11567 13.9225 5.00487 15.006 6.14573 15.7683C7.2866 16.5306 8.6279 16.9375 10 16.9375ZM9.4375 10V9.9375H9.375C9.22582 9.9375 9.08275 9.87824 8.97726 9.77275C8.87177 9.66726 8.8125 9.52418 8.8125 9.375C8.8125 9.22582 8.87177 9.08274 8.97726 8.97725C9.08275 8.87176 9.22582 8.8125 9.375 8.8125C9.68995 8.8125 9.99199 8.93761 10.2147 9.16031C10.4374 9.38301 10.5625 9.68506 10.5625 10V13.125V13.1875H10.625C10.7742 13.1875 10.9173 13.2468 11.0228 13.3523C11.1282 13.4577 11.1875 13.6008 11.1875 13.75C11.1875 13.8992 11.1282 14.0423 11.0228 14.1477C10.9173 14.2532 10.7742 14.3125 10.625 14.3125C10.3101 14.3125 10.008 14.1874 9.78531 13.9647C9.56262 13.742 9.4375 13.4399 9.4375 13.125V10ZM5.52072 3.29628C6.84658 2.41036 8.40537 1.93751 9.99997 1.9375C12.1376 1.93977 14.187 2.78994 15.6985 4.30146C17.2101 5.813 18.0602 7.86243 18.0625 10.0001C18.0625 11.5947 17.5896 13.1534 16.7037 14.4793C15.8178 15.8052 14.5586 16.8385 13.0854 17.4488C11.6122 18.059 9.99106 18.2187 8.42709 17.9076C6.86312 17.5965 5.42652 16.8286 4.29896 15.701C3.17139 14.5735 2.40352 13.1369 2.09242 11.5729C1.78133 10.0089 1.94099 8.38784 2.55122 6.91461C3.16146 5.44139 4.19485 4.1822 5.52072 3.29628ZM8.8125 6.5625C8.8125 6.38944 8.86382 6.22027 8.95997 6.07638C9.05611 5.93248 9.19277 5.82033 9.35266 5.75411C9.51254 5.68788 9.68847 5.67055 9.85821 5.70431C10.0279 5.73807 10.1839 5.82141 10.3062 5.94378C10.4286 6.06615 10.5119 6.22206 10.5457 6.3918C10.5795 6.56153 10.5621 6.73746 10.4959 6.89735C10.4297 7.05723 10.3175 7.19389 10.1736 7.29004C10.0297 7.38618 9.86056 7.4375 9.6875 7.4375C9.45544 7.4375 9.23288 7.34531 9.06879 7.18122C8.90469 7.01712 8.8125 6.79456 8.8125 6.5625Z" fill="#B71A2A" stroke="#B71A2A" stroke-width="0.125"/>
</svg>
