<svg width="24" height="24" viewBox="0 0 24 24" fill="none" xmlns="http://www.w3.org/2000/svg">
<path d="M11.3125 15.5937V15.6403V17.25C11.3125 17.4323 11.3849 17.6072 11.5139 17.7361C11.6428 17.8651 11.8177 17.9375 12 17.9375C12.1823 17.9375 12.3572 17.8651 12.4861 17.7361C12.6151 17.6072 12.6875 17.4323 12.6875 17.25V15.6403V15.5937L12.7321 15.5804C13.3218 15.4044 13.8284 15.0221 14.1594 14.5033C14.4904 13.9845 14.6236 13.364 14.5348 12.755C14.4459 12.1461 14.1409 11.5895 13.6755 11.1869C13.2101 10.7844 12.6154 10.5627 12 10.5625L11.3125 15.5937ZM11.3125 15.5937L11.2679 15.5804M11.3125 15.5937L11.2679 15.5804M11.2679 15.5804C10.6782 15.4044 10.1716 15.0221 9.84062 14.5033C9.50964 13.9845 9.37639 13.364 9.46523 12.755C9.55408 12.1461 9.85908 11.5895 10.3245 11.1869C10.7899 10.7844 11.3846 10.5627 12 10.5625L11.2679 15.5804ZM16.4375 7.5V7.5625H16.5H19.5C19.8812 7.5625 20.2469 7.71395 20.5165 7.98353C20.786 8.25312 20.9375 8.61875 20.9375 9V19.5C20.9375 19.8812 20.786 20.2469 20.5165 20.5165C20.2469 20.786 19.8812 20.9375 19.5 20.9375H4.5C4.11875 20.9375 3.75312 20.786 3.48353 20.5165C3.21395 20.2469 3.0625 19.8812 3.0625 19.5V9C3.0625 8.61875 3.21395 8.25312 3.48353 7.98353C3.75312 7.71395 4.11875 7.5625 4.5 7.5625H7.5H7.5625V7.5V5.25C7.5625 4.0731 8.03002 2.94441 8.86221 2.11221C9.69441 1.28002 10.8231 0.8125 12 0.8125C13.1769 0.8125 14.3056 1.28002 15.1378 2.11221C15.97 2.94441 16.4375 4.0731 16.4375 5.25V7.5ZM15 7.5625H15.0625V7.5V5.25C15.0625 4.43777 14.7398 3.65882 14.1655 3.08449C13.5912 2.51016 12.8122 2.1875 12 2.1875C11.1878 2.1875 10.4088 2.51016 9.83449 3.08449C9.26016 3.65882 8.9375 4.43777 8.9375 5.25V7.5V7.5625H9H15ZM19.5 19.5625H19.5625V19.5V9V8.9375H19.5H4.5H4.4375V9V19.5V19.5625H4.5H19.5ZM11.3403 14.1124C11.5355 14.2429 11.7651 14.3125 12 14.3125C12.3149 14.3125 12.617 14.1874 12.8397 13.9647C13.0624 13.742 13.1875 13.4399 13.1875 13.125C13.1875 12.8901 13.1179 12.6605 12.9874 12.4653C12.8569 12.27 12.6714 12.1178 12.4544 12.0279C12.2374 11.938 11.9987 11.9145 11.7683 11.9603C11.538 12.0061 11.3264 12.1192 11.1603 12.2853C10.9942 12.4514 10.8811 12.663 10.8353 12.8933C10.7895 13.1237 10.813 13.3624 10.9029 13.5794C10.9928 13.7964 11.145 13.9819 11.3403 14.1124Z" fill="#858589" stroke="#858589" stroke-width="0.125"/>
</svg>
