<svg width="7" height="11" viewBox="0 0 7 11" fill="none" xmlns="http://www.w3.org/2000/svg">
<path d="M6.35378 5.85378L1.35378 10.8538C1.30733 10.9002 1.25218 10.9371 1.19148 10.9622C1.13079 10.9874 1.06573 11.0003 1.00003 11.0003C0.934336 11.0003 0.869282 10.9874 0.808586 10.9622C0.747889 10.9371 0.692739 10.9002 0.646284 10.8538C0.599829 10.8073 0.562978 10.7522 0.537837 10.6915C0.512696 10.6308 0.499756 10.5657 0.499756 10.5C0.499756 10.4343 0.512696 10.3693 0.537837 10.3086C0.562978 10.2479 0.599829 10.1927 0.646284 10.1463L5.29316 5.50003L0.646284 0.853784C0.552463 0.759964 0.499756 0.632716 0.499756 0.500034C0.499756 0.367352 0.552463 0.240104 0.646284 0.146284C0.740104 0.0524635 0.867352 -0.00024414 1.00003 -0.000244141C1.13272 -0.000244142 1.25996 0.0524635 1.35378 0.146284L6.35378 5.14628C6.40027 5.19272 6.43715 5.24786 6.46231 5.30856C6.48748 5.36926 6.50043 5.43433 6.50043 5.50003C6.50043 5.56574 6.48748 5.6308 6.46231 5.6915C6.43715 5.7522 6.40027 5.80735 6.35378 5.85378Z" fill="black"/>
</svg>
