<svg width="24" height="24" viewBox="0 0 24 24" fill="none" xmlns="http://www.w3.org/2000/svg">
<path d="M21.5947 19.9063L21.5946 19.9063L21.5955 19.9077C21.6435 19.9859 21.6753 20.073 21.6891 20.1638C21.7029 20.2545 21.6984 20.3471 21.6758 20.4361C21.6532 20.5251 21.6131 20.6087 21.5577 20.6819C21.5023 20.7551 21.4328 20.8165 21.3533 20.8624C21.2738 20.9083 21.1859 20.9379 21.0948 20.9493C21.0037 20.9607 20.9112 20.9537 20.8229 20.9288C20.7345 20.9039 20.652 20.8615 20.5803 20.8042C20.5086 20.7469 20.4491 20.6758 20.4052 20.5952L20.4053 20.5952L20.4044 20.5937C18.6273 17.5223 15.485 15.6875 12 15.6875C8.51501 15.6875 5.37277 17.5223 3.5956 20.5937L3.59558 20.5937L3.59477 20.5952C3.55096 20.6758 3.49144 20.7469 3.41971 20.8042C3.34798 20.8615 3.2655 20.9039 3.17713 20.9288C3.08877 20.9537 2.99631 20.9607 2.90522 20.9493C2.81412 20.9379 2.72623 20.9083 2.64673 20.8624C2.56723 20.8165 2.49774 20.7551 2.44234 20.6819C2.38695 20.6087 2.34678 20.5251 2.32421 20.4361C2.30163 20.3471 2.29711 20.2545 2.31091 20.1638C2.3247 20.073 2.35654 19.9859 2.40454 19.9077L2.40456 19.9077L2.40537 19.9063C3.82561 17.45 6.01368 15.6902 8.56659 14.8569L8.69744 14.8142L8.57917 14.7438C7.32077 13.9947 6.34308 12.8532 5.79623 11.4946C5.24938 10.136 5.16361 8.6355 5.55209 7.22346C5.94057 5.81143 6.78183 4.56596 7.94667 3.67832C9.1115 2.79067 10.5355 2.30994 12 2.30994C13.4645 2.30994 14.8885 2.79067 16.0534 3.67832C17.2182 4.56596 18.0594 5.81143 18.4479 7.22346C18.8364 8.6355 18.7506 10.136 18.2038 11.4946C17.6569 12.8532 16.6792 13.9947 15.4209 14.7438L15.3026 14.8142L15.4334 14.8569C17.9863 15.6911 20.1744 17.4509 21.5947 19.9063ZM6.68751 8.99999V9.00005C6.68902 10.4085 7.2492 11.7589 8.24515 12.7548C9.2411 13.7508 10.5915 14.311 11.9999 14.3125H12C13.0507 14.3125 14.0778 14.0009 14.9515 13.4172C15.8251 12.8334 16.506 12.0037 16.9081 11.033C17.3102 10.0623 17.4154 8.99409 17.2104 7.96357C17.0054 6.93305 16.4995 5.98645 15.7565 5.24348C15.0135 4.50052 14.067 3.99455 13.0364 3.78957C12.0059 3.58458 10.9377 3.68979 9.967 4.09188C8.99627 4.49397 8.16657 5.17488 7.58283 6.04852C6.99908 6.92216 6.68751 7.94927 6.68751 8.99999Z" fill="#858589" stroke="#858589" stroke-width="0.125"/>
</svg>
